<svg width="800" height="520" viewBox="0 0 800 520" fill="none" xmlns="http://www.w3.org/2000/svg">
  <rect width="800" height="520" rx="36" fill="url(#bg)"/>
  <rect x="104" y="74" width="592" height="372" rx="30" fill="white" fill-opacity="0.95"/>
  <rect x="146" y="122" width="170" height="250" rx="24" fill="#F8FAFC"/>
  <rect x="334" y="122" width="170" height="250" rx="24" fill="#F8FAFC"/>
  <rect x="522" y="122" width="132" height="250" rx="24" fill="#EEF4FF"/>
  <rect x="176" y="166" width="110" height="78" rx="16" fill="#DBEAFE"/>
  <circle cx="214" cy="196" r="12" fill="#2563EB"/>
  <path d="M176 244L204 214L228 238L250 220L286 256H176V244Z" fill="#60A5FA"/>
  <rect x="364" y="166" width="110" height="78" rx="16" fill="#EDE9FE"/>
  <circle cx="402" cy="196" r="12" fill="#7C3AED"/>
  <path d="M364 244L392 214L416 238L438 220L474 256H364V244Z" fill="#A78BFA"/>
  <rect x="548" y="154" width="80" height="100" rx="16" fill="url(#doc)"/>
  <path d="M572 180H604" stroke="white" stroke-width="10" stroke-linecap="round"/>
  <path d="M572 208H604" stroke="white" stroke-width="10" stroke-linecap="round"/>
  <path d="M572 236H594" stroke="white" stroke-width="10" stroke-linecap="round"/>
  <rect x="548" y="278" width="80" height="28" rx="14" fill="#2563EB"/>
  <defs>
    <linearGradient id="bg" x1="58" y1="32" x2="738" y2="478" gradientUnits="userSpaceOnUse">
      <stop stop-color="#DBEAFE"/>
      <stop offset="1" stop-color="#D1FAE5"/>
    </linearGradient>
    <linearGradient id="doc" x1="548" y1="154" x2="628" y2="254" gradientUnits="userSpaceOnUse">
      <stop stop-color="#4F46E5"/>
      <stop offset="1" stop-color="#06B6D4"/>
    </linearGradient>
  </defs>
</svg>
