<svg width="800" height="520" viewBox="0 0 800 520" fill="none" xmlns="http://www.w3.org/2000/svg">
  <rect width="800" height="520" rx="36" fill="url(#bg)"/>
  <rect x="86" y="66" width="628" height="388" rx="28" fill="white" fill-opacity="0.96"/>
  <rect x="136" y="116" width="528" height="286" rx="24" fill="#F8FAFC"/>
  <rect x="172" y="156" width="248" height="20" rx="10" fill="#DBEAFE"/>
  <rect x="172" y="194" width="304" height="14" rx="7" fill="#CBD5E1"/>
  <rect x="172" y="224" width="286" height="14" rx="7" fill="#CBD5E1"/>
  <rect x="172" y="254" width="234" height="14" rx="7" fill="#CBD5E1"/>
  <rect x="472" y="146" width="150" height="56" rx="18" fill="#FEF3C7"/>
  <rect x="472" y="220" width="132" height="48" rx="18" fill="#DBEAFE"/>
  <rect x="472" y="286" width="118" height="44" rx="18" fill="#EDE9FE"/>
  <circle cx="594" cy="360" r="40" fill="url(#accent)"/>
  <path d="M575 360L588 373L615 346" stroke="white" stroke-width="11" stroke-linecap="round" stroke-linejoin="round"/>
  <path d="M442 358L510 290" stroke="#2563EB" stroke-width="14" stroke-linecap="round"/>
  <circle cx="428" cy="372" r="18" fill="#2563EB"/>
  <defs>
    <linearGradient id="bg" x1="44" y1="28" x2="744" y2="482" gradientUnits="userSpaceOnUse">
      <stop stop-color="#E0ECFF"/>
      <stop offset="1" stop-color="#FCE7F3"/>
    </linearGradient>
    <linearGradient id="accent" x1="554" y1="320" x2="634" y2="400" gradientUnits="userSpaceOnUse">
      <stop stop-color="#2563EB"/>
      <stop offset="1" stop-color="#8B5CF6"/>
    </linearGradient>
  </defs>
</svg>
